<?xml version="1.0" encoding="UTF-8" standalone="no"?>
<!-- Created with Inkscape (http://www.inkscape.org/) -->

<svg
   width="60.928047mm"
   height="30.397257mm"
   viewBox="0 0 60.928047 30.397257"
   version="1.1"
   id="svg1"
   inkscape:version="1.4 (e7c3feb1, 2024-10-09)"
   sodipodi:docname="lurez-full.svg"
   xmlns:inkscape="http://www.inkscape.org/namespaces/inkscape"
   xmlns:sodipodi="http://sodipodi.sourceforge.net/DTD/sodipodi-0.dtd"
   xmlns="http://www.w3.org/2000/svg"
   xmlns:svg="http://www.w3.org/2000/svg">
  <sodipodi:namedview
     id="namedview1"
     pagecolor="#ffffff"
     bordercolor="#000000"
     borderopacity="0.25"
     inkscape:showpageshadow="2"
     inkscape:pageopacity="0.0"
     inkscape:pagecheckerboard="0"
     inkscape:deskcolor="#d1d1d1"
     inkscape:document-units="mm"
     inkscape:zoom="3.2276188"
     inkscape:cx="99.144299"
     inkscape:cy="68.161706"
     inkscape:window-width="1728"
     inkscape:window-height="1051"
     inkscape:window-x="0"
     inkscape:window-y="38"
     inkscape:window-maximized="1"
     inkscape:current-layer="layer1"
     showgrid="false">
    <inkscape:page
       x="5.6027697e-23"
       y="0"
       width="60.928047"
       height="30.397257"
       id="page2"
       margin="0"
       bleed="0" />
  </sodipodi:namedview>
  <defs
     id="defs1" />
  <g
     inkscape:label="Layer 1"
     inkscape:groupmode="layer"
     id="layer1"
     transform="translate(-30.594216,-88.111479)">
    <path
       id="text1-0-1"
       style="font-size:25.4px;font-family:Ballet;-inkscape-font-specification:'Ballet, @opsz=20';font-feature-settings:'ss02';font-variation-settings:'opsz' 20;text-align:center;text-anchor:middle;stroke:#000000;stroke-width:0.171262;stroke-linecap:round;stroke-linejoin:round"
       d="M 46.554999 88.197262 C 44.302866 88.197262 42.211363 88.552663 40.280963 89.263863 C 38.350563 89.975063 36.665825 90.965775 35.226491 92.235775 C 33.787158 93.505775 32.669591 94.996037 31.873724 96.706303 C 31.077858 98.41657 30.679999 100.27062 30.679999 102.26875 C 30.679999 104.01289 31.010236 105.62162 31.670636 107.09482 C 32.314103 108.55108 33.228288 109.81228 34.413621 110.87908 C 35.615888 111.96281 37.021235 112.80099 38.629901 113.39366 C 40.238568 113.98632 42.008221 114.28301 43.938621 114.28301 C 45.344087 114.28301 46.741046 114.12208 48.12958 113.80035 C 48.70572 113.6754 49.27299 113.51995 49.834902 113.34663 C 51.176155 114.30815 52.362392 115.12175 53.361819 115.7563 C 54.428619 116.43364 55.376873 116.96674 56.206606 117.35621 C 57.053273 117.74567 57.849507 118.01668 58.594574 118.16908 C 59.339641 118.33841 60.110194 118.42332 60.906061 118.42332 C 62.514728 118.42332 63.784314 118.13503 64.715647 117.55929 C 65.663914 117.00049 66.1383 116.24723 66.1383 115.29897 C 66.1383 114.8079 65.952211 114.26589 65.579677 113.67323 L 65.350751 113.80035 C 65.672484 114.27448 65.833409 114.72319 65.833409 115.14652 C 65.833409 115.94239 65.443938 116.56041 64.665005 117.00067 C 63.886071 117.45787 62.793669 117.68642 61.388202 117.68642 C 60.050469 117.68642 58.780882 117.48355 57.578615 117.07715 C 56.393282 116.68769 55.250034 116.17923 54.149367 115.5527 C 53.048701 114.9431 51.973591 114.29153 50.923724 113.59726 C 50.717902 113.46115 50.512013 113.33234 50.306191 113.19884 C 50.953055 112.98218 51.591514 112.73586 52.219253 112.45418 C 53.540053 111.87845 54.776087 111.1839 55.927553 110.3711 C 56.924485 109.65272 57.827023 108.86077 58.646251 108.00277 C 58.487871 108.24141 58.34564 108.46804 58.23904 108.6694 C 57.917307 109.24513 57.756382 109.74468 57.756382 110.16801 C 57.756382 110.38815 57.815616 110.56585 57.934149 110.70131 C 58.035749 110.83678 58.188286 110.90492 58.391486 110.90492 C 58.882552 110.90492 59.661494 110.48138 60.728294 109.63471 C 61.464755 109.04785 62.294065 108.2962 63.202562 107.40436 C 63.16852 107.45112 63.122862 107.5066 63.090424 107.55215 C 62.294557 108.65282 61.896698 109.51616 61.896698 110.14269 C 61.896698 110.65069 62.133632 110.90492 62.607766 110.90492 C 62.946432 110.90492 63.403525 110.7267 63.979258 110.3711 C 64.571925 110.0155 65.215623 109.52486 65.90989 108.89832 C 66.62109 108.25486 67.340281 107.52624 68.068414 106.71344 L 68.27202 106.45971 L 68.297341 106.45971 L 68.627553 106.10418 C 69.723857 104.91429 70.615197 103.99058 71.394826 103.21237 C 71.533585 103.16655 71.686057 103.11075 71.802553 103.08162 C 72.022687 103.01389 72.217164 102.97982 72.386497 102.97982 C 72.75903 102.97982 72.945636 103.13236 72.945636 103.43716 C 72.945636 103.70809 72.776323 104.04672 72.437657 104.45312 C 72.09899 104.84258 71.67545 105.27451 71.16745 105.74865 C 70.676384 106.20585 70.176834 106.6881 69.668834 107.1961 C 69.177767 107.68717 68.763132 108.16994 68.424465 108.64408 C 68.102732 109.11821 67.941807 109.56691 67.941807 109.99025 C 67.941807 110.31198 68.051886 110.54053 68.27202 110.67599 C 68.492153 110.82839 68.703406 110.90492 68.906606 110.90492 C 69.313006 110.90492 69.838237 110.71831 70.481704 110.34578 C 71.12517 109.97325 71.819197 109.4737 72.564264 108.84716 C 73.094618 108.39931 73.602545 107.90647 74.100088 107.39299 C 74.080081 107.42907 74.056698 107.46484 74.037559 107.50099 C 73.715826 108.07673 73.554901 108.63551 73.554901 109.17738 C 73.554901 109.70231 73.682273 110.12585 73.936273 110.44758 C 74.190273 110.75238 74.537287 110.90492 74.977553 110.90492 C 75.536353 110.90492 76.205216 110.7267 76.984149 110.3711 C 77.763083 109.99857 78.5588 109.49063 79.3716 108.84716 C 80.201334 108.2037 80.963499 107.49238 81.657766 106.71344 L 81.886176 106.45971 L 81.911497 106.45971 L 82.216388 106.1295 C 82.724388 105.5707 83.21555 105.07115 83.689683 104.63088 C 84.18075 104.19062 84.705464 103.97046 85.264264 103.97046 C 85.721464 103.97046 86.255083 104.03808 86.864683 104.17355 C 87.474283 104.29208 88.058231 104.35131 88.617031 104.35131 C 87.601031 105.01171 86.542698 105.73142 85.442031 106.51036 C 85.226576 106.66283 85.024054 106.81522 84.810545 106.96769 L 82.82617 106.96769 L 82.699046 107.17078 L 84.530459 107.17078 C 83.751148 107.72958 82.969555 108.28836 82.216388 108.84716 C 81.166521 109.60916 80.201491 110.33726 79.320958 111.03153 L 79.498724 111.20929 C 79.735791 111.07383 79.998407 111.00621 80.286273 111.00621 C 80.862007 111.00621 81.411885 111.15035 81.936819 111.43822 C 82.478685 111.72609 83.029081 112.06471 83.587881 112.45418 C 84.146681 112.84365 84.747921 113.18227 85.391388 113.47014 C 86.034855 113.77494 86.762951 113.92747 87.575751 113.92747 C 88.049884 113.92747 88.549434 113.82578 89.074367 113.62258 C 89.616234 113.41938 90.048162 113.08076 90.369896 112.60662 L 90.319253 112.53014 C 89.692719 113.29214 88.938942 113.67323 88.058409 113.67323 C 87.465742 113.67323 86.932123 113.55476 86.45799 113.31769 C 85.983856 113.09756 85.544057 112.81817 85.137657 112.4795 C 84.731257 112.15777 84.324493 111.82753 83.918093 111.48886 C 83.528626 111.16713 83.122379 110.89613 82.699046 110.67599 C 82.275713 110.43893 81.801327 110.32046 81.276394 110.32046 C 81.140927 110.32046 80.997296 110.33724 80.844896 110.3711 C 80.675562 110.38804 80.531414 110.4221 80.412881 110.4729 C 81.344214 109.7617 82.368995 108.99954 83.486595 108.18674 C 83.962197 107.84085 84.435161 107.50441 84.907697 107.17078 L 87.27086 107.17078 L 87.397984 106.96769 L 85.192951 106.96769 C 85.735148 106.58721 86.27589 106.21422 86.81404 105.84993 C 87.914707 105.08793 88.913807 104.41907 89.811273 103.84334 C 90.014473 103.70787 90.251408 103.54694 90.522341 103.36068 C 90.810208 103.15748 91.114764 102.92054 91.436497 102.64961 L 90.928518 102.64961 C 90.572918 103.15761 90.183447 103.41184 89.760114 103.41184 C 89.38758 103.41184 88.972945 103.38616 88.515745 103.33536 C 88.075478 103.26762 87.64355 103.20839 87.220217 103.15759 C 86.796884 103.08986 86.424189 103.0563 86.102456 103.0563 C 85.391256 103.0563 84.697229 103.36086 84.019896 103.97046 C 83.342562 104.58006 82.648019 105.29977 81.936819 106.1295 L 81.657766 106.45971 L 81.632444 106.45971 L 81.352875 106.78993 C 80.675542 107.53499 79.947445 108.21224 79.168512 108.82184 C 78.389579 109.41451 77.627413 109.88889 76.882347 110.24449 C 76.154213 110.58316 75.51942 110.75247 74.977553 110.75247 C 74.45262 110.75247 74.190005 110.51502 74.190005 110.04089 C 74.190005 109.63449 74.367705 109.13494 74.723305 108.54227 C 75.048818 107.97263 75.47356 107.37808 75.986794 106.7615 C 76.609005 106.75391 77.254184 106.64665 77.923627 106.43439 C 78.617893 106.21426 79.26998 105.94325 79.87958 105.62152 C 80.506113 105.28285 81.014051 104.91855 81.403518 104.52908 C 81.792984 104.13961 81.987978 103.77583 81.987978 103.43716 C 81.987978 103.25089 81.903063 103.09836 81.73373 102.97982 C 81.58133 102.86129 81.361172 102.80206 81.073305 102.80206 C 80.429839 102.80206 79.760976 102.93782 79.066709 103.20875 C 78.389376 103.47968 77.720514 103.84347 77.060114 104.30067 C 76.399714 104.74094 75.807378 105.24049 75.282444 105.79929 C 75.077148 106.01783 74.902684 106.23858 74.731057 106.45971 L 74.723305 106.45971 L 74.418414 106.78993 C 73.774948 107.48419 73.097697 108.13628 72.386497 108.74588 C 71.675297 109.33855 71.006434 109.8208 70.379901 110.19334 C 69.770301 110.56587 69.288044 110.75247 68.932444 110.75247 C 68.576844 110.75247 68.398627 110.58316 68.398627 110.24449 C 68.398627 109.88889 68.585232 109.50781 68.957766 109.10141 C 69.330299 108.69501 69.79578 108.27986 70.35458 107.85653 C 70.913379 107.43319 71.472163 107.00178 72.030963 106.56152 C 72.589763 106.10432 73.055244 105.64671 73.427777 105.18951 C 73.800311 104.71537 73.986916 104.24989 73.986916 103.79269 C 73.986916 103.40323 73.860061 103.12383 73.606061 102.9545 C 73.352061 102.78517 73.012919 102.70025 72.589585 102.70025 C 72.352519 102.70025 72.132877 102.73432 71.929677 102.80206 C 71.866831 102.823 71.797773 102.85028 71.733307 102.87285 C 71.825 102.78302 71.944202 102.65707 72.030963 102.57365 C 72.911497 101.71005 73.631205 101.08312 74.190005 100.69366 L 73.148724 100.69366 C 72.877791 101.06619 72.344172 101.70989 71.548305 102.62429 C 70.752439 103.52175 69.685717 104.69017 68.347984 106.1295 L 68.043093 106.45971 L 67.738202 106.78993 C 67.077802 107.50113 66.408939 108.1616 65.731606 108.7712 C 65.071206 109.36387 64.462094 109.84612 63.903294 110.21866 C 63.361427 110.57426 62.937887 110.75247 62.633087 110.75247 C 62.379087 110.75247 62.252232 110.58316 62.252232 110.24449 C 62.252232 109.99049 62.413156 109.64296 62.73489 109.2027 C 63.056623 108.7455 63.564561 108.14477 64.258828 107.39971 C 64.953094 106.65464 65.884056 105.69748 67.052456 104.52908 C 67.441922 104.13961 67.789453 103.83506 68.094253 103.61493 C 68.399053 103.39479 68.661151 103.22548 68.881285 103.10695 L 66.925848 103.10695 C 65.854829 104.22946 64.984222 105.20034 64.270197 106.05354 L 64.258828 106.05354 C 63.479894 106.93407 62.692565 107.73818 61.896698 108.46631 C 61.117765 109.17751 60.423221 109.73629 59.813621 110.14269 C 59.204021 110.54909 58.73854 110.75247 58.416807 110.75247 C 58.145874 110.75247 58.010114 110.59155 58.010114 110.26982 C 58.010114 110.06662 58.187814 109.7196 58.543414 109.22854 C 58.882081 108.73747 59.314009 108.18707 59.838943 107.57747 C 60.380809 106.96787 60.956886 106.35825 61.566486 105.74865 C 62.193019 105.13905 62.785355 104.59704 63.344155 104.1229 C 63.919888 103.63184 64.394274 103.29321 64.766807 103.10695 L 62.810854 103.10695 C 61.523921 104.47855 60.516433 105.6045 59.7883 106.48503 C 59.783021 106.49142 59.78012 106.49624 59.774864 106.5026 L 58.822984 107.55215 C 57.942451 108.53429 56.926575 109.42279 55.775108 110.21866 C 54.640575 111.01452 53.421317 111.69229 52.11745 112.25109 C 51.441031 112.54977 50.752699 112.80978 50.053493 113.03554 C 49.293711 112.54665 48.533828 112.06941 47.774046 111.61599 C 47.635119 111.53532 47.494987 111.46181 47.355467 111.38499 C 47.44421 111.34975 47.532857 111.32349 47.6216 111.28578 C 48.976267 110.71004 50.220689 109.94788 51.355223 108.99961 C 52.378821 108.12879 53.351963 107.1492 54.279075 106.07162 C 55.513677 105.47828 56.716189 104.81477 57.88299 104.07226 C 59.098085 103.29902 60.228937 102.47963 61.282265 101.61815 C 61.592122 101.88074 61.878822 102.14755 62.125108 102.4212 L 62.302875 102.24343 C 62.065273 101.97283 61.787279 101.71052 61.487938 101.45278 C 61.496919 101.44532 61.506356 101.43804 61.515326 101.43056 C 62.632926 100.49923 63.61525 99.559362 64.461916 98.611097 C 65.308583 97.645897 65.969057 96.714418 66.443191 95.816952 C 66.917324 94.919485 67.154258 94.098603 67.154258 93.353536 C 67.154258 92.743936 66.900031 92.438863 66.392031 92.438863 C 65.968698 92.438863 65.427207 92.650633 64.766807 93.073967 C 64.12334 93.480367 63.403632 94.073219 62.607766 94.852153 C 62.015099 95.427886 61.320555 96.138689 60.524689 96.985356 C 59.827832 97.742809 59.06694 98.564926 58.275214 99.417249 C 57.700655 99.13757 57.096396 98.876893 56.460854 98.636418 C 55.573037 98.300487 54.667593 98.022618 53.745774 97.797193 C 53.693462 97.069857 53.479712 96.366624 53.082766 95.690345 C 52.642499 94.911411 51.922791 94.276101 50.923724 93.785035 C 49.924658 93.277035 48.603709 93.023324 46.961176 93.023324 C 45.437176 93.023324 44.023441 93.226189 42.719574 93.632589 C 41.415707 94.038989 40.272459 94.606161 39.290326 95.334294 C 38.325126 96.062427 37.571866 96.926284 37.029999 97.92535 C 36.505066 98.907484 36.24245 99.974206 36.24245 101.12567 C 36.24245 102.44647 36.581075 103.65734 37.258409 104.75801 C 37.952675 105.84174 39.002621 106.70508 40.408087 107.34855 C 41.813554 107.99201 43.583207 108.31386 45.716807 108.31386 C 46.986806 108.31386 48.307239 108.13616 49.678839 107.78056 C 49.909406 107.7187 50.14022 107.64789 50.370787 107.57902 C 50.344311 107.60198 50.314942 107.63079 50.288621 107.65344 C 49.391154 108.50011 48.426124 109.21143 47.393191 109.78716 C 46.840396 110.10041 46.295387 110.36683 45.757632 110.59486 C 45.365029 110.42257 44.970875 110.2601 44.573724 110.11737 C 43.489991 109.71097 42.355131 109.50759 41.169798 109.50759 C 40.695665 109.50759 40.297806 109.60928 39.976072 109.81248 C 39.671272 109.99875 39.519253 110.25297 39.519253 110.57471 C 39.519253 110.91337 39.662884 111.20115 39.950751 111.43822 C 40.238617 111.67529 40.678934 111.85299 41.2716 111.97152 C 41.8812 112.09005 42.643366 112.14929 43.557766 112.14929 C 44.700003 112.14929 45.842193 111.9323 46.98443 111.52297 C 47.843344 111.98914 48.707348 112.5297 49.577553 113.16525 C 49.582203 113.1686 49.585827 113.1712 49.590473 113.17455 C 49.091702 113.32312 48.589139 113.45994 48.078937 113.57194 C 46.690404 113.87674 45.31022 114.02876 43.938621 114.02876 C 42.059021 114.02876 40.323437 113.73259 38.731704 113.13993 C 37.156904 112.56419 35.785109 111.75118 34.616709 110.70131 C 33.448309 109.65145 32.542513 108.40703 31.899046 106.96769 C 31.255579 105.52836 30.93373 103.96209 30.93373 102.26875 C 30.93373 100.30449 31.323201 98.483989 32.102134 96.807589 C 32.898001 95.131189 33.998792 93.666609 35.404258 92.413542 C 36.826658 91.160475 38.486232 90.18654 40.382766 89.492273 C 42.279299 88.798007 44.336733 88.450993 46.554999 88.450993 C 47.723399 88.450993 48.86613 88.552684 49.98373 88.755884 C 51.10133 88.959084 52.142887 89.246864 53.108087 89.619397 C 54.073287 89.974997 54.903074 90.398537 55.597341 90.889604 C 56.308541 91.363737 56.816479 91.880063 57.121279 92.438863 L 57.349689 92.311739 C 57.027955 91.736006 56.503241 91.202904 55.775108 90.711837 C 55.063908 90.203837 54.217345 89.763521 53.235211 89.390987 C 52.253078 89.018454 51.186356 88.730674 50.03489 88.527474 C 48.900356 88.307341 47.740332 88.197262 46.554999 88.197262 z M 66.392031 92.693111 C 66.730698 92.693111 66.90001 92.91327 66.90001 93.353536 C 66.90001 94.200203 66.587066 95.148457 65.960533 96.198324 C 65.333999 97.248191 64.470143 98.3233 63.369476 99.423967 C 62.73567 100.05777 62.042393 100.67917 61.301902 101.29052 C 60.878352 100.94457 60.401406 100.60976 59.864264 100.28748 C 59.600316 100.12471 59.327724 99.967639 59.047776 99.815157 C 59.436976 99.281908 59.840047 98.716123 60.219798 98.20492 C 61.100331 97.002653 61.972576 95.952708 62.836176 95.055241 C 63.665909 94.276308 64.377229 93.691843 64.969896 93.302377 C 65.562562 92.895977 66.036431 92.693111 66.392031 92.693111 z M 46.961176 93.277055 C 48.976242 93.277055 50.568195 93.708983 51.736595 94.572583 C 52.816233 95.359177 53.398356 96.415793 53.494627 97.736215 C 53.198073 97.667152 52.900157 97.602197 52.600108 97.544495 C 51.279308 97.273562 50.009205 97.137801 48.790005 97.137801 C 47.401471 97.137801 46.139755 97.315502 45.005223 97.671102 C 43.887623 98.009769 42.998602 98.475766 42.338202 99.068433 C 41.694735 99.644166 41.373403 100.29574 41.373403 101.02387 C 41.373403 101.8536 41.77965 102.52247 42.59245 103.03047 C 43.40525 103.52153 44.48036 103.76737 45.818093 103.76737 C 46.91876 103.76737 47.94354 103.62322 48.891807 103.33536 C 49.857007 103.04749 50.70357 102.64963 51.431704 102.14163 C 52.159837 101.6167 52.727009 101.01546 53.133409 100.33812 C 53.556742 99.643858 53.768512 98.907372 53.768512 98.128439 C 53.768512 98.107899 53.764647 98.08796 53.764378 98.06746 C 54.649216 98.290224 55.514811 98.56235 56.359052 98.890666 C 56.964684 99.114667 57.540969 99.35717 58.089695 99.617753 C 58.061454 99.648135 58.038474 99.673036 58.010114 99.703536 C 57.12958 100.66873 56.232172 101.64215 55.317772 102.62429 C 54.403372 103.60642 53.514351 104.5379 52.650751 105.41843 C 51.996508 106.08576 51.388851 106.65999 50.805385 107.18577 C 50.641513 107.23925 50.478168 107.29842 50.313943 107.34855 C 48.705276 107.82268 47.173073 108.06013 45.716807 108.06013 C 43.820274 108.06013 42.177476 107.78074 40.788943 107.22194 C 39.417343 106.66314 38.359009 105.86691 37.613943 104.83397 C 36.868876 103.80104 36.496698 102.56501 36.496698 101.12567 C 36.496698 100.00807 36.758797 98.975419 37.28373 98.027153 C 37.808663 97.061953 38.545148 96.223261 39.493414 95.512061 C 40.441681 94.800861 41.55086 94.250982 42.82086 93.861516 C 44.09086 93.472049 45.471043 93.277055 46.961176 93.277055 z M 48.790005 97.392049 C 50.009205 97.392049 51.27092 97.527293 52.574786 97.798226 C 52.888404 97.859321 53.199344 97.927485 53.508063 98.001315 C 53.509053 98.04433 53.514264 98.084886 53.514264 98.128439 C 53.514264 99.127505 53.167251 100.0333 52.472984 100.8461 C 51.795651 101.6589 50.873077 102.31099 49.704677 102.80206 C 48.536277 103.27619 47.240493 103.51312 45.818093 103.51312 C 44.565027 103.51312 43.54915 103.28458 42.770217 102.82738 C 42.008217 102.37018 41.627134 101.76894 41.627134 101.02387 C 41.627134 100.34654 41.940595 99.737422 42.567129 99.195557 C 43.210595 98.636757 44.073935 98.196441 45.157668 97.874707 C 46.241401 97.552974 47.452271 97.392049 48.790005 97.392049 z M 58.895331 100.02496 C 59.17534 100.17515 59.448302 100.32978 59.711819 100.49057 C 60.225292 100.80387 60.685633 101.12675 61.09623 101.45795 C 60.612255 101.85099 60.113581 102.24059 59.585211 102.62429 C 58.179745 103.64029 56.681095 104.56338 55.089362 105.39311 C 54.955897 105.462 54.821544 105.52291 54.687836 105.58948 C 55.664643 104.39574 56.604055 103.17952 57.502134 101.93854 C 57.979505 101.27022 58.431306 100.66214 58.895331 100.02496 z M 81.149786 103.03047 C 81.488453 103.03047 81.657766 103.16623 81.657766 103.43716 C 81.657766 103.72503 81.480065 104.04687 81.124465 104.40247 C 80.785798 104.75807 80.337094 105.0967 79.778294 105.41843 C 79.236427 105.72323 78.643575 105.97694 78.000108 106.18014 C 77.372754 106.37826 76.770499 106.49284 76.191433 106.52999 C 76.707861 105.94933 77.249239 105.40611 77.822341 104.91045 C 78.448874 104.35165 79.058503 103.90295 79.65117 103.56428 C 80.243837 103.20868 80.743386 103.03047 81.149786 103.03047 z M 41.195636 109.76184 C 42.330169 109.7449 43.633825 110.03268 45.107025 110.62535 C 45.198048 110.66197 45.289758 110.70823 45.38091 110.74679 C 45.058603 110.8723 44.738112 110.98819 44.421279 111.08269 C 43.456079 111.37055 42.592223 111.51418 41.830223 111.51418 C 41.203689 111.51418 40.704139 111.4214 40.331606 111.23513 C 39.959073 111.04887 39.772984 110.81141 39.772984 110.52355 C 39.772984 110.28648 39.899839 110.10039 40.153839 109.96493 C 40.424773 109.82946 40.772303 109.76184 41.195636 109.76184 z " />
  </g>
</svg>
