<?xml version="1.0" encoding="UTF-8" standalone="no"?>
<!-- Created with Inkscape (http://www.inkscape.org/) -->

<svg
   width="44.570263mm"
   height="35.849628mm"
   viewBox="0 0 44.570263 35.849628"
   version="1.1"
   id="svg1"
   xml:space="preserve"
   xmlns:inkscape="http://www.inkscape.org/namespaces/inkscape"
   xmlns:sodipodi="http://sodipodi.sourceforge.net/DTD/sodipodi-0.dtd"
   xmlns="http://www.w3.org/2000/svg"
   xmlns:svg="http://www.w3.org/2000/svg"><sodipodi:namedview
     id="namedview1"
     pagecolor="#ffffff"
     bordercolor="#000000"
     borderopacity="0.25"
     inkscape:showpageshadow="2"
     inkscape:pageopacity="0.0"
     inkscape:pagecheckerboard="0"
     inkscape:deskcolor="#d1d1d1"
     inkscape:document-units="mm"
     inkscape:zoom="1.1056246"
     inkscape:cx="418.31559"
     inkscape:cy="546.29755"
     inkscape:window-width="1496"
     inkscape:window-height="905"
     inkscape:window-x="0"
     inkscape:window-y="34"
     inkscape:window-maximized="1"
     inkscape:current-layer="layer1"><inkscape:page
       x="-4.7795199e-13"
       y="0"
       width="44.570267"
       height="35.849628"
       id="page2"
       margin="0"
       bleed="0" /></sodipodi:namedview><defs
     id="defs1" /><g
     inkscape:label="Layer 1"
     inkscape:groupmode="layer"
     id="layer1"
     transform="translate(-73.237072,-89.965349)"><path
       style="fill:#000000"
       d="m 73.957704,125.05345 c -0.56294,-0.50966 -0.79451,-0.83698 -0.70016,-0.98964 0.123,-0.19902 1.87998,-1.07921 5.65231,-2.83161 12.54455,-5.82745 13.3321,-6.22012 15.21428,-7.58579 2.58237,-1.87371 3.12741,-2.32074 5.33502,-4.37579 2.275896,-2.11861 3.270966,-3.17402 3.127666,-3.31733 -0.0532,-0.0532 -0.71916,0.3874 -1.47991,0.97911 -4.743396,3.68943 -10.780216,7.22534 -15.639896,9.16065 -1.77404,0.70649 -2.05925,0.7096 -2.05925,0.0225 0,-0.95939 1.33679,-5.22089 2.46287,-7.85128 2.74337,-6.40817 7.04994,-11.441403 12.42706,-14.523893 2.909876,-1.66813 5.710556,-2.62598 9.363546,-3.20242 2.32859,-0.36745 8.95022,-0.72035 9.55136,-0.50904 0.34442,0.12107 0.3911,0.30796 0.50964,2.04057 0.56587,8.270673 -1.692,15.021323 -6.71935,20.089693 -1.8537,1.86883 -3.84522,3.23732 -6.11018,4.19865 -1.82335,0.7739 -2.57363,0.9996 -5.257166,1.58146 -2.59396,0.56244 -3.49531,0.65532 -7.72623,0.79619 l -3.47446,0.11568 -4.14514,2.22856 c -7.88751,4.24058 -8.84518,4.73525 -9.16731,4.73525 -0.17796,0 -0.70207,-0.34269 -1.1647,-0.76153 z"
       id="path1" /></g></svg>
