<?xml version="1.0" encoding="UTF-8" standalone="no"?>
<!-- Created with Inkscape (http://www.inkscape.org/) -->

<svg
   width="40.862057mm"
   height="30.397264mm"
   viewBox="0 0 40.862057 30.397264"
   version="1.1"
   id="svg1"
   inkscape:version="1.4 (e7c3feb1, 2024-10-09)"
   sodipodi:docname="text1-0-0.svg"
   xmlns:inkscape="http://www.inkscape.org/namespaces/inkscape"
   xmlns:sodipodi="http://sodipodi.sourceforge.net/DTD/sodipodi-0.dtd"
   xmlns="http://www.w3.org/2000/svg"
   xmlns:svg="http://www.w3.org/2000/svg">
  <sodipodi:namedview
     id="namedview1"
     pagecolor="#ffffff"
     bordercolor="#000000"
     borderopacity="0.25"
     inkscape:showpageshadow="2"
     inkscape:pageopacity="0.0"
     inkscape:pagecheckerboard="0"
     inkscape:deskcolor="#d1d1d1"
     inkscape:document-units="mm"
     inkscape:zoom="1.8979034"
     inkscape:cx="72.711815"
     inkscape:cy="80.088375"
     inkscape:window-width="1728"
     inkscape:window-height="1051"
     inkscape:window-x="0"
     inkscape:window-y="38"
     inkscape:window-maximized="1"
     inkscape:current-layer="layer1"
     showgrid="false">
    <inkscape:page
       x="0"
       y="0"
       width="40.862057"
       height="30.397264"
       id="page2"
       margin="0"
       bleed="0" />
  </sodipodi:namedview>
  <defs
     id="defs1" />
  <g
     inkscape:label="Layer 1"
     inkscape:groupmode="layer"
     id="layer1"
     transform="translate(-137.84211,-107.73114)">
    <path
       id="text1-0-0"
       style="font-size:25.4px;font-family:Ballet;-inkscape-font-specification:'Ballet, @opsz=20';font-variation-settings:'opsz' 20;text-align:center;text-anchor:middle;stroke:#000000;stroke-width:0.171262;stroke-linecap:round;stroke-linejoin:round"
       d="M 153.80289 107.81692 C 151.55076 107.81692 149.45926 108.17232 147.52886 108.88352 C 145.59846 109.59472 143.91372 110.58544 142.47439 111.85544 C 141.03506 113.12544 139.91749 114.61569 139.12162 116.32596 C 138.32575 118.03623 137.92789 119.89029 137.92789 121.88842 C 137.92789 123.63255 138.25813 125.24128 138.91853 126.71448 C 139.562 128.17075 140.47619 129.43194 141.66152 130.49874 C 142.86379 131.58247 144.26913 132.42065 145.8778 133.01332 C 147.48647 133.60599 149.25612 133.90267 151.18652 133.90267 C 152.59199 133.90267 153.98894 133.74174 155.37747 133.42001 C 155.95361 133.29507 156.52088 133.13961 157.0828 132.96629 C 158.42405 133.92782 159.61029 134.74141 160.60971 135.37596 C 161.67651 136.05329 162.62477 136.5864 163.4545 136.97587 C 164.30117 137.36534 165.0974 137.63634 165.84247 137.78874 C 166.58754 137.95804 167.35808 138.04298 168.15395 138.04298 C 169.76262 138.04298 171.03221 137.75468 171.96354 137.17895 C 172.91181 136.62015 173.38619 135.8669 173.38619 134.91863 C 173.38619 134.78451 173.3653 134.67048 173.33245 134.56206 C 173.33347 134.56245 173.33453 134.5627 173.33555 134.56309 C 174.09755 134.86789 174.92682 135.01991 175.82429 135.01991 C 176.28149 135.01991 176.78103 134.91035 177.3229 134.69022 C 177.86477 134.48702 178.2967 134.14787 178.61843 133.67374 L 178.54247 133.6231 C 177.93287 134.36817 177.17909 134.74086 176.28162 134.74086 C 175.46882 134.74086 174.72395 134.57993 174.04662 134.2582 C 173.38622 133.93647 172.75982 133.53861 172.16715 133.06448 L 170.4396 131.64183 C 169.8808 131.1677 169.29686 130.76145 168.68726 130.42278 C 168.09459 130.10105 167.43411 129.94012 166.70598 129.94012 C 166.55358 129.94012 166.40104 129.95686 166.24864 129.99076 C 166.09624 130.00766 165.961 130.04177 165.84247 130.09257 C 166.7738 129.38137 167.78967 128.6192 168.89034 127.8064 C 169.37098 127.45685 169.84376 127.1306 170.32126 126.79044 L 172.70045 126.79044 L 172.82757 126.58735 L 170.60755 126.58735 C 171.14416 126.20671 171.68515 125.81302 172.21779 125.44427 C 173.31846 124.68227 174.31755 124.0218 175.21502 123.463 C 175.41822 123.32753 175.65516 123.16661 175.92609 122.98034 C 176.21396 122.77714 176.51903 122.5402 176.84076 122.26927 L 176.35811 122.26927 C 176.00251 122.77727 175.61303 123.0315 175.1897 123.0315 C 174.81717 123.0315 174.40202 123.00582 173.94482 122.95502 L 172.62397 122.75193 C 172.20064 122.68423 171.82845 122.65013 171.50672 122.65013 C 171.04952 122.65013 170.58352 122.79427 170.10939 123.08214 C 169.65219 123.37001 169.1951 123.75109 168.7379 124.22522 C 168.29763 124.69935 167.84054 125.20729 167.36641 125.74916 L 167.06152 126.07937 L 166.07088 127.17181 C 165.19035 128.15394 164.17447 129.04245 163.023 129.83832 C 161.88847 130.63419 160.66921 131.31195 159.36534 131.87075 C 158.68892 132.16943 158.00059 132.42944 157.30139 132.6552 C 156.54161 132.16631 155.78172 131.68906 155.02194 131.23565 C 154.88301 131.15498 154.74288 131.08147 154.60336 131.00465 C 154.6921 130.96941 154.78075 130.94315 154.86949 130.90544 C 156.22416 130.32971 157.46859 129.56754 158.60312 128.61927 C 159.62671 127.74845 160.59986 126.76886 161.52697 125.69128 C 162.76157 125.09794 163.96408 124.43443 165.13088 123.69192 C 166.34598 122.91868 167.47683 122.09929 168.53016 121.23781 C 168.84002 121.5004 169.12672 121.76721 169.373 122.04086 L 169.55077 121.86309 C 169.31314 121.59246 169.03522 121.33022 168.73583 121.07244 C 168.74481 121.06498 168.75425 121.0577 168.76322 121.05022 C 169.88082 120.11889 170.86314 119.17903 171.70981 118.23076 C 172.55648 117.26556 173.21695 116.33408 173.69108 115.43661 C 174.16521 114.53914 174.40215 113.71827 174.40215 112.9732 C 174.40215 112.3636 174.14792 112.05852 173.63992 112.05852 C 173.21659 112.05852 172.6751 112.2703 172.0147 112.69363 C 171.37123 113.10003 170.65153 113.69288 169.85566 114.47181 C 169.26299 115.04754 168.56845 115.75835 167.77258 116.60502 C 167.07573 117.36247 166.31484 118.18459 165.52311 119.03691 C 164.94855 118.75723 164.34429 118.49655 163.70875 118.25608 C 162.82106 117.9202 161.91535 117.64226 160.99367 117.41685 C 160.94136 116.68952 160.72761 115.98628 160.33066 115.31001 C 159.89039 114.53108 159.17069 113.89577 158.17162 113.4047 C 157.17255 112.8967 155.8516 112.64298 154.20907 112.64298 C 152.68507 112.64298 151.27134 112.84585 149.96747 113.25225 C 148.6636 113.65865 147.52035 114.22582 146.53822 114.95395 C 145.57302 115.68208 144.81976 116.54594 144.27789 117.54501 C 143.75296 118.52714 143.49034 119.59386 143.49034 120.74533 C 143.49034 122.06613 143.82897 123.277 144.5063 124.37767 C 145.20057 125.4614 146.25051 126.32474 147.65598 126.96821 C 149.06145 127.61168 150.8311 127.93352 152.9647 127.93352 C 154.2347 127.93352 155.55513 127.75582 156.92673 127.40022 C 157.1573 127.33836 157.38811 127.26755 157.61868 127.19869 C 157.59221 127.22164 157.56284 127.25045 157.53652 127.2731 C 156.63905 128.11977 155.67401 128.83109 154.64108 129.40682 C 154.08829 129.72007 153.54328 129.98649 153.00553 130.21452 C 152.61292 130.04223 152.21877 129.87976 151.82162 129.73703 C 150.73789 129.33063 149.60302 129.12725 148.41769 129.12725 C 147.94356 129.12725 147.5457 129.22894 147.22397 129.43214 C 146.91917 129.61841 146.76715 129.87264 146.76715 130.19437 C 146.76715 130.53304 146.91077 130.82081 147.19864 131.05788 C 147.48651 131.29495 147.92682 131.47265 148.51949 131.59118 C 149.12909 131.70968 149.89126 131.76895 150.80566 131.76895 C 151.9479 131.76895 153.09009 131.55196 154.23232 131.14263 C 155.09124 131.6088 155.95524 132.14936 156.82545 132.78491 C 156.8301 132.78826 156.83372 132.79086 156.83837 132.79421 C 156.3396 132.94278 155.83703 133.07961 155.32683 133.1916 C 153.9383 133.4964 152.55812 133.64842 151.18652 133.64842 C 149.30692 133.64842 147.57133 133.35226 145.9796 132.75959 C 144.4048 132.18386 143.033 131.37085 141.8646 130.32098 C 140.6962 129.27111 139.79041 128.02668 139.14694 126.58735 C 138.50347 125.14802 138.18162 123.58175 138.18162 121.88842 C 138.18162 119.92415 138.5711 118.10365 139.35003 116.42725 C 140.1459 114.75085 141.24668 113.28627 142.65215 112.0332 C 144.07455 110.78013 145.73413 109.8062 147.63066 109.11193 C 149.52719 108.41766 151.58462 108.07065 153.80289 108.07065 C 154.97129 108.07065 156.11402 108.17235 157.23162 108.37555 C 158.34922 108.57875 159.39078 108.86653 160.35598 109.23906 C 161.32118 109.59466 162.15097 110.0182 162.84523 110.50926 C 163.55643 110.9834 164.06437 111.49972 164.36917 112.05852 L 164.59758 111.9314 C 164.27585 111.35567 163.75113 110.82257 163.023 110.3315 C 162.3118 109.8235 161.46524 109.38318 160.48311 109.01065 C 159.50098 108.63812 158.43425 108.35034 157.28278 108.14714 C 156.14825 107.92701 154.98822 107.81692 153.80289 107.81692 z M 173.63992 112.31277 C 173.97859 112.31277 174.1479 112.53293 174.1479 112.9732 C 174.1479 113.81987 173.83496 114.76811 173.20843 115.81798 C 172.5819 116.86785 171.71804 117.94296 170.61737 119.04363 C 169.98356 119.67744 169.29029 120.29883 168.5498 120.91018 C 168.12625 120.56424 167.64929 120.22942 167.11216 119.90714 C 166.84821 119.74437 166.57562 119.5873 166.29567 119.43482 C 166.68487 118.90157 167.08794 118.33578 167.46769 117.82458 C 168.34822 116.62231 169.22047 115.57237 170.08407 114.6749 C 170.9138 113.89597 171.62512 113.31151 172.21779 112.92204 C 172.81046 112.51564 173.28432 112.31277 173.63992 112.31277 z M 154.20907 112.89672 C 156.22414 112.89672 157.81609 113.32864 158.98449 114.19224 C 160.06412 114.97884 160.64625 116.03545 160.74252 117.35588 C 160.44582 117.28677 160.1482 117.22189 159.848 117.16416 C 158.5272 116.89323 157.2571 116.75746 156.0379 116.75746 C 154.64937 116.75746 153.38765 116.93516 152.25312 117.29076 C 151.13552 117.62943 150.2465 118.09542 149.5861 118.68809 C 148.94263 119.26382 148.6213 119.9154 148.6213 120.64353 C 148.6213 121.47326 149.02754 122.14213 149.84034 122.65013 C 150.65314 123.1412 151.72826 123.38703 153.06599 123.38703 C 154.16666 123.38703 155.19143 123.24289 156.1397 122.95502 C 157.1049 122.66715 157.95147 122.26929 158.6796 121.76129 C 159.40773 121.23636 159.9749 120.63511 160.3813 119.95778 C 160.80463 119.26351 161.01641 118.52703 161.01641 117.7481 C 161.01641 117.72756 161.01254 117.70762 161.01227 117.68712 C 161.89711 117.90989 162.7627 118.18201 163.60695 118.51033 C 164.21258 118.73433 164.78886 118.97683 165.33759 119.23741 C 165.30935 119.2678 165.28637 119.2927 165.25801 119.3232 C 164.37748 120.2884 163.48007 121.26182 162.56567 122.24395 C 161.65127 123.22608 160.76224 124.15756 159.89864 125.03809 C 159.2444 125.70542 158.63674 126.27966 158.05328 126.80543 C 157.88941 126.85891 157.72606 126.91808 157.56184 126.96821 C 155.95317 127.44234 154.42097 127.67979 152.9647 127.67979 C 151.06817 127.67979 149.42537 127.4004 148.03684 126.8416 C 146.66524 126.2828 145.60691 125.48656 144.86184 124.45363 C 144.11677 123.4207 143.74408 122.18466 143.74408 120.74533 C 143.74408 119.62773 144.00669 118.59508 144.53162 117.64681 C 145.05655 116.68161 145.79304 115.84292 146.74131 115.13172 C 147.68958 114.42052 148.79875 113.87065 150.06875 113.48118 C 151.33875 113.09171 152.71894 112.89672 154.20907 112.89672 z M 156.0379 117.01171 C 157.2571 117.01171 158.51881 117.14696 159.82268 117.41789 C 160.1363 117.47898 160.44724 117.54715 160.75596 117.62098 C 160.75695 117.66399 160.76216 117.70455 160.76216 117.7481 C 160.76216 118.74717 160.41515 119.65296 159.72088 120.46576 C 159.04355 121.27856 158.12097 121.93065 156.95257 122.42172 C 155.78417 122.89585 154.48839 123.13278 153.06599 123.13278 C 151.81292 123.13278 150.79704 122.90424 150.01811 122.44704 C 149.25611 121.98984 148.87503 121.3886 148.87503 120.64353 C 148.87503 119.9662 149.18849 119.35709 149.81502 118.81522 C 150.45849 118.25642 151.32183 117.8161 152.40556 117.49437 C 153.48929 117.17264 154.70017 117.01171 156.0379 117.01171 z M 166.14322 119.64462 C 166.42323 119.79481 166.6962 119.94944 166.95971 120.11023 C 167.47319 120.42354 167.93353 120.74641 168.34412 121.07761 C 167.86015 121.47066 167.36148 121.86025 166.83311 122.24395 C 165.42764 123.25995 163.92899 124.18304 162.33726 125.01277 C 162.20379 125.08166 162.06944 125.14257 161.93573 125.20914 C 162.91254 124.0154 163.85195 122.79918 164.75003 121.5582 C 165.2274 120.88988 165.6792 120.2818 166.14322 119.64462 z M 170.66853 123.59012 C 171.14266 123.59012 171.68415 123.64936 172.29375 123.76789 C 172.90335 123.88639 173.48782 123.94565 174.04662 123.94565 C 173.03062 124.62298 171.9639 125.35109 170.8463 126.13002 C 170.63086 126.28248 170.4283 126.43489 170.21481 126.58735 L 168.25524 126.58735 L 168.12812 126.79044 L 169.93472 126.79044 C 169.15538 127.34927 168.37334 127.908 167.62014 128.46683 C 166.57027 129.22883 165.61363 129.95692 164.75003 130.65119 L 164.90247 130.82895 C 165.13954 130.69345 165.40215 130.62587 165.69002 130.62587 C 166.33349 130.62587 166.9515 130.77001 167.54417 131.05788 C 168.13684 131.36268 168.73808 131.72647 169.34768 132.1498 C 169.95728 132.59007 170.58368 133.03038 171.22715 133.47065 C 171.80238 133.85414 172.41187 134.17638 173.05133 134.44424 C 173.07138 134.55307 173.0813 134.66052 173.0813 134.76618 C 173.0813 135.56205 172.69183 136.18006 171.9129 136.62033 C 171.13397 137.07753 170.04157 137.30608 168.6361 137.30608 C 167.29837 137.30608 166.02878 137.10321 164.82651 136.69681 C 163.64118 136.30734 162.49793 135.79889 161.39726 135.17236 C 160.29659 134.56276 159.22149 133.91119 158.17162 133.21692 C 157.9658 133.08081 157.75991 132.952 157.55409 132.8185 C 158.20095 132.60184 158.83941 132.35552 159.46715 132.07384 C 160.78795 131.49811 162.02398 130.80356 163.17545 129.99076 C 164.32692 129.16103 165.35957 128.23846 166.27397 127.22246 L 167.31576 126.07937 L 167.62014 125.74916 C 168.14507 125.17343 168.64462 124.67388 169.11875 124.25055 C 169.59288 123.81028 170.10973 123.59012 170.66853 123.59012 z M 148.44353 129.3815 C 149.57806 129.36457 150.88172 129.65234 152.35492 130.24501 C 152.44594 130.28163 152.53765 130.32789 152.6288 130.36645 C 152.3065 130.49196 151.98601 130.60785 151.66917 130.70235 C 150.70397 130.99022 149.84012 131.13385 149.07812 131.13385 C 148.45159 131.13385 147.95203 131.04106 147.5795 130.85479 C 147.20697 130.66852 147.02088 130.43108 147.02088 130.14321 C 147.02088 129.90614 147.14773 129.72006 147.40173 129.58459 C 147.67266 129.44909 148.0202 129.3815 148.44353 129.3815 z " />
  </g>
</svg>
