<?xml version="1.0" encoding="UTF-8" standalone="no"?>
<svg
  width="40mm"
  height="40mm"
  id="svg2"
  version="1.1"
  xmlns="http://www.w3.org/2000/svg"
>
  <g
    transform="matrix(0.24144564,-0.06463439,0.06469517,0.24121883,-4.5411061,-6.6465164)">
    <path
      d="m 451.29275,264.45148 c -11.31627,-3.27876 -23.48693,-4.91845 -36.51089,-4.91845 l -39.89171,5.8e-4 -19.8543,-2.7e-4 -15.301,3.7e-4 3.3e-4,265.21494 16.39374,1.2e-4 18.76156,-2.2e-4 36.61292,1.9e-4 c 18.4582,0 35.03432,-2.85387 49.72802,-8.56134 14.81514,-5.82891 27.44452,-14.14754 37.88798,-24.9553 10.56489,-10.80777 18.64005,-23.86215 24.22609,-39.16303 5.58603,-15.42231 8.37871,-32.72667 8.37871,-51.91349 l 1.8e-4,-15.84721 c 0,-19.18681 -2.79317,-36.43097 -8.3792,-51.73185 -5.58604,-15.42231 -13.60064,-28.5374 -24.04409,-39.34516 -10.32202,-10.9292 -22.64767,-19.24698 -36.97707,-24.95445 -3.58235,-1.45723 -7.25918,-2.73251 -11.03127,-3.82543 z m -9.56303,27.44795 c 2.70953,0.79692 5.32371,1.72653 7.84349,2.78909 10.20059,4.25024 18.82253,10.50429 25.86579,18.76191 7.04326,8.13618 12.38627,18.15465 16.02934,30.05534 3.64306,11.77925 5.46463,25.25844 5.46463,40.43788 l 6e-5,16.21163 c 0,19.30825 -3.21817,36.18812 -9.65425,50.63895 -6.31465,14.32939 -15.78603,25.50203 -28.41533,33.51678 -12.6293,7.89331 -28.41621,11.83945 -47.36016,11.83945 l -36.61311,5.6e-4 -1.9e-4,-207.83701 39.89246,-3.8e-4 c 9.83628,0 18.81868,1.19504 26.94727,3.5858 z"/>
    <path
      d="m 256.55595,327.00421 c -7.56126,-1.9923 -15.66817,-2.98883 -24.32045,-2.98883 -13.72222,0 -26.10854,2.55046 -37.15918,7.65075 -11.05063,4.97886 -20.46229,12.02244 -28.23417,21.1301 -7.77187,8.98623 -13.7224,19.61133 -17.8512,31.87632 -4.12882,12.14356 -6.1931,25.31912 -6.1931,39.52708 l 4e-5,4.19016 c 0,14.20796 2.06443,27.38351 6.19324,39.52707 4.12881,12.14355 10.07886,22.76927 17.85074,31.87694 7.89331,8.98623 17.36552,16.02915 28.41616,21.12944 11.05063,4.97885 23.49835,7.46819 37.342,7.46819 13.84365,0 26.22952,-2.48903 37.15872,-7.46789 11.05063,-5.10029 20.46228,-12.14386 28.23416,-21.1301 7.89331,-9.10766 13.90457,-19.73334 18.03337,-31.8769 4.12882,-12.14355 6.1931,-25.31911 6.1931,-39.52707 l -2.5e-4,-4.18941 c 0,-14.20796 -2.06442,-27.38351 -6.19323,-39.52706 -4.12881,-12.265 -10.14015,-22.8911 -18.03345,-31.87733 -7.77188,-9.10766 -17.24334,-16.15037 -28.41541,-21.12923 -4.14399,-1.91261 -8.48433,-3.46685 -13.02109,-4.66223 z m -11.20524,26.15613 c 4.06809,0.97148 7.83248,2.42879 11.29339,4.37176 7.04327,3.88594 12.87168,9.22879 17.48623,16.02918 4.73599,6.67895 8.25749,14.39044 10.56477,23.1338 2.42871,8.62192 3.64363,17.79016 3.64363,27.505 l -5.1e-4,4.1892 c 0,9.83628 -1.21437,19.12651 -3.64309,27.86987 -2.30727,8.62192 -5.76745,16.27196 -10.382,22.95091 -4.61455,6.67896 -10.44358,11.96141 -17.48684,15.84735 -6.92183,3.7645 -14.99781,5.64649 -24.22691,5.64649 -9.35054,0 -17.54711,-1.88199 -24.59037,-5.64649 -7.04326,-3.88594 -12.93323,-9.1685 -17.66921,-15.84745 -4.61456,-6.67896 -8.07504,-14.32939 -10.38231,-22.95132 -2.30728,-8.74336 -3.46115,-18.03276 -3.46115,-27.86904 l -2.5e-4,-4.18941 c 0,-9.71484 1.15409,-18.88369 3.46136,-27.50561 2.30727,-8.74336 5.76771,-16.45408 10.38226,-23.13303 4.73599,-6.80039 10.56528,-12.14352 17.4871,-16.02946 7.04326,-3.88593 15.17948,-5.82938 24.40858,-5.82938 4.67527,0 9.04723,0.48614 13.11532,1.45763 z"/>
    <path
      d="m 72.583636,263.72319 c -10.686328,-2.79302 -22.829459,-4.18997 -36.43024,-4.18997 l -86.887255,4.6e-4 3.37e-4,265.21494 13.479266,-2.7e-4 21.676034,1.7e-4 57.743059,-1.7e-4 c 17.729588,0 33.151727,-2.91415 46.266766,-8.74306 13.115037,-5.95034 23.254917,-14.57229 30.419607,-25.86579 7.28614,-11.41495 10.92892,-25.38002 10.92892,-41.89525 0,-11.41494 -2.36822,-21.85816 -7.1042,-31.33014 -4.61456,-9.47196 -11.3543,-17.24411 -20.21909,-23.31589 -5.502855,-3.84446 -11.756838,-6.70216 -18.757086,-8.58129 2.520079,-1.09813 4.952582,-2.29985 7.281971,-3.62271 9.957715,-5.58604 17.729525,-12.75086 23.315555,-21.49422 5.58604,-8.8648 8.37889,-18.76231 8.37889,-29.6915 0,-12.38643 -1.94259,-23.01176 -5.82853,-31.87655 -3.88593,-8.8648 -9.59423,-16.15058 -17.12323,-21.85804 C 92.316842,270.645 83.269964,266.39477 72.583636,263.72319 Z m -13.683827,27.04984 c 2.140302,0.54646 4.151234,1.18359 6.033485,1.91221 7.65044,2.79302 13.297707,7.28584 16.940773,13.47905 3.764502,6.07178 5.646567,13.96504 5.646567,23.67989 0,8.86479 -2.12531,16.51551 -6.375554,22.9516 -4.128809,6.31464 -9.957527,11.17198 -17.486531,14.57217 -7.527291,3.39943 -16.329068,5.09925 -26.405345,5.10002 -0.0023,0 -0.0044,6.5e-4 -0.0066,6.5e-4 l -43.1708596,-3.6e-4 -2.024e-4,7.5e-4 -9.653624,-5.3e-4 3.67e-4,-84.15506 51.730998,2e-4 c 8.743359,0 16.325667,0.82003 22.746571,2.45941 z M 63.556,402.97899 c 3.438144,0.91076 6.568606,2.09494 9.391983,3.55216 7.529003,3.88594 13.054561,9.4109 16.576192,16.5756 3.52163,7.16469 5.282099,15.66572 5.282099,25.502 0,9.71485 -2.063994,18.15402 -6.192802,25.31871 -4.128809,7.04326 -10.139651,12.50817 -18.032961,16.39411 -7.771875,3.88594 -17.24391,5.82925 -28.415979,5.82925 l -57.742857,-5.9e-4 6.7e-5,-95.44789 9.2896992,1.8e-4 50.0921788,-7e-5 c 7.437927,0 14.02214,0.75859 19.75238,2.27654 z"/>
  </g>
</svg>
