<?xml version="1.0" encoding="UTF-8" standalone="no"?>
<!-- Created with Inkscape (http://www.inkscape.org/) -->

<svg
  width="25.051241mm"
  height="25.899874mm"
  viewBox="0 0 25.051241 25.899874"
  version="1.1"
  id="svg1"
  xmlns="http://www.w3.org/2000/svg"
>
  <defs
    id="defs1"/>
  <g
    id="layer1"
    transform="translate(-92.498373,-135.55007)">
    <path
      id="path7"
      style="font-variation-settings:'opsz' 20;fill:#ff00ff;stroke:#ff00ff;stroke-width:0.0367645;stroke-linecap:round;stroke-linejoin:round"
      d="m 95.44327,135.56899 c -0.82121,-0.0203 -1.855952,0.57722 -2.004012,1.37614 -1.146323,7.65412 -1.31092,15.46794 0,23.1097 0.15794,0.85218 1.324882,1.4753 2.165242,1.36374 7.98374,-1.05984 13.19601,-0.74267 18.79058,0 0.84037,0.11156 2.0068,-0.51156 2.16473,-1.36374 0.5983,-3.2282 0.89151,-7.47474 0.971,-11.50782 5.6e-4,-0.0284 5.6e-4,-0.0657 0,-0.0941 -0.0795,-4.0331 -0.3727,-8.27963 -0.971,-11.50782 -0.14806,-0.79893 -1.1828,-1.39647 -2.00401,-1.37614 -0.0547,0.001 -0.10819,0.005 -0.16072,0.0124 -7.96586,1.05746 -13.18792,0.74375 -18.79058,0 -0.0525,-0.007 -0.10649,-0.011 -0.16123,-0.0124 z m 18.9553,8.89206 c 0.6049,-0.0127 1.32441,0.38013 1.35651,0.7245 v 3.2675 0.0941 3.26751 c -0.0381,0.40814 -1.0418,0.88366 -1.67588,0.67231 -1.6361,-0.70051 -3.27404,-2.33333 -3.43027,-3.96101 h 0.0176 v -0.0512 h -0.0176 c 0.15595,-1.62786 1.794,-3.26147 3.43027,-3.96204 0.0991,-0.0331 0.31937,-0.16373 0.31937,-0.0517 z"/>
  </g>
</svg>
